<svg width="62" height="24" viewBox="0 0 62 24" fill="none" xmlns="http://www.w3.org/2000/svg">
<path d="M10.401 0L0 6.00862V11.3168L10.401 5.26795L16.2488 8.62393L15.0833 9.30144L10.401 6.60575L6.32441 8.96268L15.6373 14.3541L20.7991 11.334V6.00862L10.401 0Z" fill="white"/>
<path d="M10.401 23.9998L20.7991 18.0056V12.6831L10.401 18.7319L4.55024 15.3759L5.71579 14.6984L10.401 17.3941L14.4746 15.0371L5.16173 9.64575L0 12.6658V18.0056L10.401 23.9998Z" fill="#6EBE4C"/>
<path d="M31.2004 7.90042C32.1362 6.52817 33.5315 5.84204 35.3889 5.84204C37.074 5.84204 38.4377 6.42769 39.4827 7.59611C40.5276 8.75018 41.0501 10.177 41.0501 11.8765C41.0501 13.576 40.5276 15.0028 39.4827 16.1569C38.4377 17.3282 37.0339 17.9109 35.2712 17.9109C33.5085 17.9109 32.1506 17.2162 31.2004 15.8296V22.3578H29.4463V6.02864H31.2004V7.90042ZM35.1535 7.43247C33.8903 7.43247 32.8913 7.86884 32.1592 8.74156C31.4587 9.56836 31.1056 10.6133 31.1056 11.8765C31.1056 13.1397 31.4559 14.1846 32.1592 15.0114C32.8913 15.8842 33.8903 16.3205 35.1535 16.3205C36.4166 16.3205 37.4157 15.8842 38.1937 15.0114C38.9257 14.1846 39.2932 13.1397 39.2932 11.8765C39.2932 10.6133 38.9257 9.56836 38.1937 8.74156C37.4128 7.86884 36.3994 7.43247 35.1535 7.43247Z" fill="white"/>
<path d="M44.6991 17.7273V7.57323H42.3135V6.02873H44.6991V1.84021H46.4532V6.02873H49.1431V7.57323H46.4532V17.7273H44.6991Z" fill="white"/>
<path d="M56.5373 16.3233C57.2866 16.3233 57.9498 16.1138 58.5268 15.6917C59.1038 15.2697 59.5259 14.7243 59.79 14.0525H61.6847C61.3259 15.2066 60.6713 16.1339 59.7182 16.8372C58.7192 17.5549 57.5335 17.9138 56.1613 17.9138C54.4445 17.9138 53.0493 17.3281 51.9727 16.1597C50.9278 15.0228 50.4053 13.5932 50.4053 11.8793C50.4053 10.1654 50.9278 8.73576 51.9727 7.59892C53.0493 6.42762 54.4445 5.84485 56.1613 5.84485C57.5335 5.84485 58.7192 6.2037 59.7182 6.9214C60.6684 7.62475 61.3259 8.55203 61.6847 9.7061H59.79C59.5259 9.03432 59.1038 8.48887 58.5268 8.06686C57.9498 7.64485 57.2866 7.43528 56.5373 7.43528C55.7881 7.43528 55.1536 7.55298 54.6311 7.78552C54.1086 8.02093 53.6665 8.33959 53.3105 8.74437C52.5469 9.58552 52.1651 10.6305 52.1651 11.8793C52.1651 13.1281 52.5469 14.1731 53.3105 15.0142C54.0914 15.887 55.1651 16.3233 56.5402 16.3233H56.5373Z" fill="white"/>
</svg>
