<?xml version="1.0" encoding="utf-8"?><svg viewBox="0 0 100 100" xmlns="http://www.w3.org/2000/svg" width="47px" height="47px" xmlns:xlink="http://www.w3.org/1999/xlink" style="width:100%;height:100%;background-size:initial;background-repeat-y:initial;background-repeat-x:initial;background-position-y:initial;background-position-x:initial;background-origin:initial;background-image:initial;background-color:rgb(241, 242, 243);background-clip:initial;background-attachment:initial;animation-play-state:paused" ><g class="ldl-scale" style="transform-origin:50% 50%;transform:rotate(0deg) scale(0.8, 0.8);animation-play-state:paused" ><ellipse fill="#323232" ry="2.985" rx="10.917" cy="87.015" cx="50" style="fill:rgb(224, 220, 184);animation-play-state:paused" ></ellipse>
<path fill="#c33736" d="M46.786 10.178c-13.125 1.452-23.614 12.15-24.838 25.298-.995 10.689 3.986 20.287 11.987 25.846C41.979 66.912 47.628 75.313 49.079 85l.121.806a1.118 1.118 0 0 0 2.212 0l.265-1.77c1.393-9.297 6.785-17.378 14.482-22.775 7.267-5.096 12.018-13.535 12.018-23.084 0-16.62-14.39-29.88-31.391-27.999zM50 49.189c-6.082 0-11.012-4.93-11.012-11.012 0-6.082 4.93-11.012 11.012-11.012s11.012 4.93 11.012 11.012c0 6.082-4.93 11.012-11.012 11.012z" style="fill:rgb(96, 163, 99);animation-play-state:paused" ></path>
<metadata xmlns:d="https://loading.io/stock/" style="animation-play-state:paused" ><d:name style="animation-play-state:paused" >marker</d:name>


<d:tags style="animation-play-state:paused" >marker,location,localize,site,map,poi</d:tags>


<d:license style="animation-play-state:paused" >by</d:license>


<d:slug style="animation-play-state:paused" >e7mkwk</d:slug></metadata></g><!-- generated by https://loading.io/ --></svg>